# 3ds Max Wavefront OBJ Exporter v0.99 - (c)2007 guruware
# 创建的文件:08.12.2022 20:34:12

mtllib 金_22-1208.mtl

#
# object Cylinder001
#

v  20.5543 0.0000 11.8671
v  11.8670 0.0000 20.5544
v  -0.0000 0.0000 23.7341
v  -11.8671 0.0000 20.5543
v  -20.5543 0.0000 11.8671
v  -23.7341 0.0000 -0.0000
v  -20.5543 0.0000 -11.8671
v  -11.8671 0.0000 -20.5543
v  -0.0000 0.0000 -23.7341
v  11.8671 0.0000 -20.5543
v  20.5543 0.0000 -11.8671
v  23.7341 0.0000 -0.0000
v  20.5543 6.5453 -11.8671
v  23.7341 6.5453 -0.0000
v  11.8671 6.5453 -20.5543
v  -0.0000 6.5453 -23.7341
v  -11.8671 6.5453 -20.5543
v  -20.5543 6.5453 -11.8671
v  -23.7341 6.5453 -0.0000
v  -20.5543 6.5453 11.8671
v  -11.8671 6.5453 20.5543
v  -0.0000 6.5453 23.7341
v  11.8670 6.5453 20.5544
v  20.5543 6.5453 11.8671
# 24 vertices

vn 0.6557 -0.6533 0.3785
vn 0.3785 -0.6533 0.6557
vn -0.0000 -0.6533 0.7571
vn -0.3786 -0.6533 0.6557
vn -0.6557 -0.6532 0.3786
vn -0.7572 -0.6532 -0.0000
vn -0.6557 -0.6533 -0.3785
vn -0.3785 -0.6533 -0.6557
vn -0.0000 -0.6532 -0.7572
vn 0.3786 -0.6532 -0.6557
vn 0.6557 -0.6532 -0.3786
vn 0.7571 -0.6533 -0.0000
vn 0.6557 0.6532 -0.3786
vn 0.7571 0.6533 -0.0000
vn 0.3786 0.6532 -0.6557
vn -0.0000 0.6532 -0.7572
vn -0.3785 0.6533 -0.6557
vn -0.6557 0.6533 -0.3785
vn -0.7572 0.6532 -0.0000
vn -0.6557 0.6532 0.3786
vn -0.3786 0.6533 0.6557
vn -0.0000 0.6533 0.7571
vn 0.3785 0.6533 0.6557
vn 0.6557 0.6533 0.3785
# 24 vertex normals

vt 0.8565 0.3583 0.0000
vt 0.7043 0.2062 0.0000
vt 0.4965 0.1505 0.0000
vt 0.2887 0.2062 0.0000
vt 0.1366 0.3583 0.0000
vt 0.0809 0.5662 0.0000
vt 0.1366 0.7740 0.0000
vt 0.2887 0.9261 0.0000
vt 0.4965 0.9818 0.0000
vt 0.7043 0.9261 0.0000
vt 0.8565 0.7740 0.0000
vt 0.9122 0.5662 0.0000
# 12 texture coords

o Cylinder001
g Cylinder001
usemtl Material__48
s 1
f 1/1/1 2/2/2 3/3/3 4/4/4 5/5/5 6/6/6 7/7/7 8/8/8 9/9/9 10/10/10 11/11/11 12/12/12 
s 8
f 12/12/12 11/11/11 13/11/13 14/12/14 
f 11/11/11 10/10/10 15/10/15 13/11/13 
f 10/10/10 9/9/9 16/9/16 15/10/15 
f 9/9/9 8/8/8 17/8/17 16/9/16 
f 8/8/8 7/7/7 18/7/18 17/8/17 
f 7/7/7 6/6/6 19/6/19 18/7/18 
f 6/6/6 5/5/5 20/5/20 19/6/19 
f 5/5/5 4/4/4 21/4/21 20/5/20 
f 4/4/4 3/3/3 22/3/22 21/4/21 
f 3/3/3 2/2/2 23/2/23 22/3/22 
f 2/2/2 1/1/1 24/1/24 23/2/23 
f 1/1/1 12/12/12 14/12/14 24/1/24 
s 1
f 24/1/24 14/12/14 13/11/13 15/10/15 16/9/16 17/8/17 18/7/18 19/6/19 20/5/20 21/4/21 22/3/22 23/2/23 
# 14 polygons

